<?xml version="1.0" encoding="UTF-8" standalone="no"?>
<svg
   xmlns:dc="http://purl.org/dc/elements/1.1/"
   xmlns:cc="http://creativecommons.org/ns#"
   xmlns:rdf="http://www.w3.org/1999/02/22-rdf-syntax-ns#"
   xmlns:svg="http://www.w3.org/2000/svg"
   xmlns="http://www.w3.org/2000/svg"
   xmlns:sodipodi="http://sodipodi.sourceforge.net/DTD/sodipodi-0.dtd"
   xmlns:inkscape="http://www.inkscape.org/namespaces/inkscape"
   width="19.359896mm"
   height="23.699593mm"
   viewBox="0 0 73.17126 89.573264"
   version="1.1"
   id="svg176"
   sodipodi:docname="logo_eclac_covid19_es.svg"
   inkscape:version="0.92.3 (2405546, 2018-03-11)"
   style="fill:none">
  <metadata
     id="metadata182">
    <rdf:RDF>
      <cc:Work
         rdf:about="">
        <dc:format>image/svg+xml</dc:format>
        <dc:type
           rdf:resource="http://purl.org/dc/dcmitype/StillImage" />
        <dc:title></dc:title>
      </cc:Work>
    </rdf:RDF>
  </metadata>
  <defs
     id="defs180" />
  <sodipodi:namedview
     pagecolor="#ffffff"
     bordercolor="#666666"
     borderopacity="1"
     objecttolerance="10"
     gridtolerance="10"
     guidetolerance="10"
     inkscape:pageopacity="0"
     inkscape:pageshadow="2"
     inkscape:window-width="1299"
     inkscape:window-height="713"
     id="namedview178"
     showgrid="false"
     inkscape:zoom="1.6141286"
     inkscape:cx="115.95407"
     inkscape:cy="-1.3856295"
     inkscape:window-x="67"
     inkscape:window-y="27"
     inkscape:window-maximized="1"
     inkscape:current-layer="svg176"
     units="mm"
     fit-margin-top="0"
     fit-margin-left="0"
     fit-margin-right="0"
     fit-margin-bottom="0" />
  <path
     d="m 6.2435501,49.6185 c 0,0.0621 -0.01941,0.1087 -0.1902,0.1204 v 0.0815 h 1.30032 v -0.0815 c -0.17079,-0.0117 -0.19019,-0.0583 -0.19019,-0.1204 v -2.1476 c 1.80104,2.0194 1.97573,2.1049 1.97573,2.1942 0,0.0466 -0.03496,0.0738 -0.15917,0.0738 v 0.0815 H 10.27651 v -0.0815 c -0.1708,-0.0117 -0.1902,-0.0583 -0.1902,-0.1204 v -3.1883 c 0,-0.0621 0.0194,-0.1087 0.1902,-0.1243 V 46.2244 H 9.0266201 v 0.0815 c 0.08928,0.008 0.14359,0.0427 0.14359,0.1243 v 1.8252 c -0.4774,-0.5282 -1.66128,-1.7825 -1.66128,-1.8602 0,-0.0427 0.03494,-0.0815 0.1902,-0.0893 v -0.0815 h -1.64578 v 0.0815 c 0.17079,0.0117 0.1902,0.0622 0.1902,0.1243 z"
     id="path132"
     inkscape:connector-curvature="0"
     style="clip-rule:evenodd;fill:#00528a;fill-rule:evenodd" />
  <path
     d="m 12.61321,48.7253 0.5589,-1.1961 0.5745,1.1961 z m 2.6123,1.099 v -0.0816 c -0.0544,0 -0.1165,-0.0194 -0.1359,-0.066 -0.2989,-0.7068 -1.2576,-2.6252 -1.2576,-2.7067 0,-0.0466 0.0194,-0.0622 0.0893,-0.0699 v -0.0816 h -1.4284 v 0.0816 c 0.0698,0.008 0.0892,0.0233 0.0892,0.0699 0,0.0932 -0.6327,1.4252 -1.18,2.7067 -0.0194,0.0466 -0.0815,0.066 -0.1358,0.066 v 0.0816 h 1.0247 v -0.0816 c -0.0272,0 -0.0893,0 -0.0893,-0.0582 0,-0.0738 0.1592,-0.3418 0.198,-0.466 h 1.5875 c 0.0466,0.1242 0.198,0.3922 0.198,0.466 0,0.0582 -0.0621,0.0582 -0.0893,0.0582 v 0.0816 z"
     id="path134"
     inkscape:connector-curvature="0"
     style="clip-rule:evenodd;fill:#00528a;fill-rule:evenodd" />
  <path
     d="m 19.39041,46.9467 c -0.0195,0.0272 -0.0544,0.0621 -0.101,0.0621 -0.0737,0 -0.26,-0.0621 -0.4929,-0.1165 -0.2329,-0.0544 -0.524,-0.1165 -0.8268,-0.1165 -0.9975,0 -1.9951,0.4233 -1.9951,1.5417 0,1.1223 0.9976,1.5456 1.9951,1.5456 0.8695,0 1.4634,-0.4116 1.5293,-0.4116 0.0427,0 0.0777,0.0349 0.1087,0.0776 l 0.0815,-0.0504 -0.6482,-0.9359 -0.0737,0.0466 c 0.0077,0.0427 0.0077,0.0737 0.0077,0.1242 0,0.0971 -0.458,0.4233 -1.0053,0.4233 -0.5124,0 -1.1062,-0.2369 -1.1062,-0.8194 0,-0.5786 0.5938,-0.8194 1.1062,-0.8194 0.4503,0 0.9432,0.1981 0.9432,0.3068 0,0.0466 -0.0194,0.0816 -0.0271,0.1165 l 0.0931,0.0466 0.493,-0.998 z"
     id="path136"
     inkscape:connector-curvature="0"
     style="clip-rule:evenodd;fill:#00528a;fill-rule:evenodd" />
  <path
     d="m 20.52381,46.8147 v 0.0815 c 0.1358,0.008 0.2173,0.0272 0.2173,0.1243 v 2.598 c 0,0.0932 -0.0815,0.1126 -0.2173,0.1204 v 0.0815 h 1.3546 v -0.0815 c -0.1358,-0.008 -0.2173,-0.0272 -0.2173,-0.1204 v -2.598 c 0,-0.0971 0.0815,-0.1165 0.2173,-0.1243 v -0.0815 z"
     id="path138"
     inkscape:connector-curvature="0"
     style="clip-rule:evenodd;fill:#00528a;fill-rule:evenodd" />
  <path
     d="m 24.58781,46.7758 c -0.854,0 -1.8243,0.466 -1.8243,1.5417 0,1.0835 0.9703,1.5456 1.8243,1.5456 0.8539,0 1.8243,-0.466 1.8243,-1.5456 0,-1.0757 -0.9704,-1.5417 -1.8243,-1.5417 z m 0,0.7262 c 0.5201,0 0.9354,0.3146 0.9354,0.8194 0,0.5087 -0.4192,0.8194 -0.9354,0.8194 -0.5201,0 -0.9355,-0.3146 -0.9355,-0.8194 -0.0039,-0.5048 0.4154,-0.8194 0.9355,-0.8194 z"
     id="path140"
     inkscape:connector-curvature="0"
     style="clip-rule:evenodd;fill:#00528a;fill-rule:evenodd" />
  <path
     d="m 30.80211,47.0243 c 0,-0.097 0.0815,-0.1165 0.1941,-0.1242 v -0.0816 h -1.2033 v 0.0816 c 0.1087,0.008 0.1902,0.0272 0.1902,0.1242 v 1.3476 c -0.5744,-0.6214 -1.2382,-1.2971 -1.2382,-1.3476 0,-0.097 0.0815,-0.1165 0.1436,-0.1242 v -0.0816 h -1.6263 v 0.0816 c 0.1009,0.008 0.1824,0.0272 0.1824,0.1242 v 2.5981 c 0,0.0932 -0.0815,0.1126 -0.1708,0.1203 v 0.0816 h 1.1684 v -0.0816 c -0.0932,-0.008 -0.1786,-0.0271 -0.1786,-0.1203 v -1.7903 l 0.0155,-0.0117 c 0.7686,0.901 1.6458,1.6816 1.6458,1.8369 0,0.0816 -0.1281,0.0893 -0.198,0.0893 v 0.0816 h 1.2654 v -0.0816 c -0.1087,-0.008 -0.194,-0.0272 -0.194,-0.1204 v -2.6019 z"
     id="path142"
     inkscape:connector-curvature="0"
     style="clip-rule:evenodd;fill:#00528a;fill-rule:evenodd" />
  <path
     d="m 33.10001,49.2224 v -0.6758 h 1.2848 c 0.0543,0 0.1242,0.0272 0.1242,0.1593 h 0.0815 v -0.8894 h -0.0854 c 0,0.1282 -0.0698,0.1593 -0.1242,0.1593 h -1.2848 v -0.5554 h 1.9951 c 0.0544,0 0.1243,0.0272 0.1243,0.1631 h 0.0815 v -0.9164 h -0.0815 c 0,0.1242 -0.0699,0.1514 -0.1243,0.1514 h -3.1013 v 0.0816 c 0.0931,0.008 0.1902,0.0271 0.1902,0.1242 v 2.5981 c 0,0.0932 -0.0971,0.1126 -0.1902,0.1203 v 0.0816 h 3.047 c 0.1087,0 0.1436,0.0194 0.1902,0.1437 h 0.0699 v -0.9165 h -0.0815 c -0.0272,0.1243 -0.0932,0.1709 -0.1786,0.1709 z"
     id="path144"
     inkscape:connector-curvature="0"
     style="clip-rule:evenodd;fill:#00528a;fill-rule:evenodd" />
  <path
     d="m 36.17811,49.6961 0.0737,0.0195 c 0.0466,-0.0466 0.0971,-0.0932 0.1592,-0.0932 0.0543,0 0.819,0.2446 1.475,0.2446 1.0441,0 1.5021,-0.466 1.5021,-0.998 0,-1.1884 -2.2357,-0.6874 -2.2357,-1.1767 0,-0.299 0.6055,-0.2991 0.7801,-0.2991 0.4581,0 0.9433,0.1826 0.9433,0.2525 0,0.0272 -0.0078,0.0543 -0.0078,0.0738 l 0.0893,0.0388 0.4075,-0.8621 -0.0737,-0.0272 c -0.0349,0.0272 -0.0738,0.0815 -0.1514,0.0815 -0.1514,0 -0.7103,-0.1786 -1.3585,-0.1786 -1.114,0 -1.5177,0.5942 -1.5177,1.0175 0,1.1456 2.2358,0.6291 2.2358,1.1611 0,0.268 -0.4503,0.2952 -0.6211,0.2952 -0.5551,0 -1.3391,-0.1787 -1.3391,-0.3573 0,-0.035 0.0077,-0.0544 0.0077,-0.0738 l -0.0892,-0.0388 z"
     id="path146"
     inkscape:connector-curvature="0"
     style="clip-rule:evenodd;fill:#00528a;fill-rule:evenodd" />
  <path
     d="m 45.65681,48.267 c 0,0.5243 -0.3144,0.7379 -0.8617,0.7379 -0.5473,0 -0.8617,-0.2136 -0.8617,-0.7379 v -1.8329 c 0,-0.0622 0.0194,-0.1088 0.1902,-0.1243 v -0.0816 h -1.409 v 0.0816 c 0.1708,0.0116 0.1902,0.0621 0.1902,0.1243 v 1.8329 c 0,1.2039 0.8423,1.6 1.8864,1.6 1.0442,0 1.8865,-0.3961 1.8865,-1.6 v -1.8329 c 0,-0.0622 0.0194,-0.1088 0.1902,-0.1243 v -0.0816 h -1.4052 v 0.0816 c 0.1708,0.0116 0.1902,0.0621 0.1902,0.1243 v 1.8329 z"
     id="path148"
     inkscape:connector-curvature="0"
     style="clip-rule:evenodd;fill:#00528a;fill-rule:evenodd" />
  <path
     d="m 51.58011,47.0243 c 0,-0.097 0.0815,-0.1165 0.1902,-0.1242 v -0.0816 h -1.2033 v 0.0816 c 0.1087,0.008 0.1902,0.0272 0.1902,0.1242 v 1.3476 c -0.5745,-0.6214 -1.2382,-1.2971 -1.2382,-1.3476 0,-0.097 0.0815,-0.1165 0.1436,-0.1242 v -0.0816 h -1.6264 v 0.0816 c 0.1009,0.008 0.1863,0.0272 0.1863,0.1242 v 2.5981 c 0,0.0932 -0.0815,0.1126 -0.1708,0.1203 v 0.0816 h 1.1684 v -0.0816 c -0.0932,-0.008 -0.1786,-0.0271 -0.1786,-0.1203 v -1.7903 l 0.0117,-0.0117 c 0.7724,0.901 1.6458,1.6816 1.6458,1.8369 0,0.0816 -0.1281,0.0893 -0.198,0.0893 v 0.0816 h 1.2654 v -0.0816 c -0.1087,-0.008 -0.1902,-0.0272 -0.1902,-0.1204 v -2.6019 z"
     id="path150"
     inkscape:connector-curvature="0"
     style="clip-rule:evenodd;fill:#00528a;fill-rule:evenodd" />
  <path
     d="m 52.81831,46.8147 v 0.0815 c 0.1358,0.008 0.2174,0.0272 0.2174,0.1243 v 2.598 c 0,0.0932 -0.0816,0.1126 -0.2174,0.1204 v 0.0815 h 1.3546 v -0.0815 c -0.1358,-0.008 -0.2173,-0.0272 -0.2173,-0.1204 v -2.598 c 0,-0.0971 0.0815,-0.1165 0.2173,-0.1243 v -0.0815 z"
     id="path152"
     inkscape:connector-curvature="0"
     style="clip-rule:evenodd;fill:#00528a;fill-rule:evenodd" />
  <path
     d="m 55.39181,49.6185 c 0,0.0932 -0.0815,0.1126 -0.1786,0.1204 v 0.0815 h 2.0495 c 1.0131,0 1.4206,-0.699 1.4206,-1.5068 0,-0.8038 -0.4114,-1.5028 -1.4206,-1.5028 h -2.0495 v 0.0815 c 0.0971,0.008 0.1786,0.0272 0.1786,0.1243 z m 0.916,-2.1476 h 0.493 c 0.6987,0 0.9975,0.233 0.9975,0.8466 0,0.6175 -0.2988,0.8505 -0.9975,0.8505 h -0.493 z"
     id="path154"
     inkscape:connector-curvature="0"
     style="clip-rule:evenodd;fill:#00528a;fill-rule:evenodd" />
  <path
     d="m 60.76771,48.7253 0.5589,-1.1961 0.5745,1.1961 z m 2.6084,1.099 v -0.0816 c -0.0543,0 -0.1164,-0.0194 -0.1359,-0.066 -0.2988,-0.7068 -1.2576,-2.6252 -1.2576,-2.7067 0,-0.0466 0.0194,-0.0622 0.0893,-0.0699 v -0.0816 h -1.4284 v 0.0816 c 0.0699,0.008 0.0893,0.0233 0.0893,0.0699 0,0.0932 -0.6366,1.4252 -1.18,2.7067 -0.0194,0.0466 -0.0815,0.066 -0.1359,0.066 v 0.0816 h 1.0247 v -0.0816 c -0.0271,0 -0.0892,0 -0.0892,-0.0582 0,-0.0738 0.1552,-0.3418 0.1979,-0.466 h 1.5876 c 0.0466,0.1242 0.1979,0.3922 0.1979,0.466 0,0.0582 -0.0621,0.0582 -0.0892,0.0582 v 0.0816 z"
     id="path156"
     inkscape:connector-curvature="0"
     style="clip-rule:evenodd;fill:#00528a;fill-rule:evenodd" />
  <path
     d="m 64.12911,49.6961 0.0738,0.0195 c 0.0504,-0.0466 0.097,-0.0932 0.1591,-0.0932 0.0543,0 0.819,0.2446 1.475,0.2446 1.0441,0 1.5022,-0.466 1.5022,-0.998 0,-1.1884 -2.2358,-0.6874 -2.2358,-1.1767 0,-0.299 0.6094,-0.2991 0.7802,-0.2991 0.458,0 0.9432,0.1826 0.9432,0.2525 0,0.0272 -0.0078,0.0543 -0.0078,0.0738 l 0.0893,0.0388 0.4114,-0.8621 -0.0737,-0.0272 c -0.0349,0.0272 -0.0738,0.0815 -0.1514,0.0815 -0.1514,0 -0.7103,-0.1786 -1.3585,-0.1786 -1.114,0 -1.5177,0.5942 -1.5177,1.0175 0,1.1456 2.2358,0.6291 2.2358,1.1611 0,0.268 -0.4503,0.2952 -0.6211,0.2952 -0.5512,0 -1.3391,-0.1787 -1.3391,-0.3573 0,-0.035 0.0077,-0.0544 0.0077,-0.0738 l -0.0892,-0.0388 z"
     id="path158"
     inkscape:connector-curvature="0"
     style="clip-rule:evenodd;fill:#00528a;fill-rule:evenodd" />
  <path
     d="M 72.92081,62.6629 H 0.25044999 V 89.32281 H 72.92081 Z"
     stroke-miterlimit="3.8637"
     id="path160"
     inkscape:connector-curvature="0"
     style="fill:#00528a;stroke:#00528a;stroke-width:0.50089997;stroke-miterlimit:3.86369991" />
  <path
     d="m 6.7442701,81.18681 c 0,1.196 0.95486,2.175 2.12321,2.175 1.1644299,0 2.1232299,-0.979 2.1232299,-2.175 V 79.5988 H 9.5739101 v 2.19401 h -1.41675 V 70.6977 h 1.41675 v 2.1941 H 10.99071 v -1.5883 c 0,-1.1961 -0.9549,-2.1786 -2.1232299,-2.1786 -1.16835,0 -2.12321,0.9825 -2.12321,2.1786 z"
     id="path162"
     inkscape:connector-curvature="0"
     style="clip-rule:evenodd;fill:#ffffff;fill-rule:evenodd" />
  <path
     d="m 25.01091,69.2453 h -2.8297 c -0.7841,0 -1.4168,0.6485 -1.4168,1.4524 v 11.09511 c 0,0.804 0.6288,1.452 1.4168,1.452 h 2.8297 v -1.452 h -2.8297 V 76.9694 h 2.1232 V 75.517 h -2.1232 v -4.8232 h 2.8297 z"
     id="path164"
     inkscape:connector-curvature="0"
     style="clip-rule:evenodd;fill:#ffffff;fill-rule:evenodd" />
  <path
     d="m 34.78461,83.24481 h 1.4168 V 76.9694 h 1.4167 c 0.7841,0 1.4129,-0.6485 1.4129,-1.4524 v -4.8232 c 0,-0.8038 -0.6288,-1.4524 -1.4129,-1.4524 h -2.8296 v 14.00341 z m 1.4129,-12.54711 h 1.4167 v 4.8232 h -1.4167 z"
     id="path166"
     inkscape:connector-curvature="0"
     style="clip-rule:evenodd;fill:#ffffff;fill-rule:evenodd" />
  <path
     d="m 48.80091,83.24481 h 1.4167 V 76.9694 h 1.4168 v 6.27541 h 1.4168 V 71.3035 c 0,-1.1961 -0.9549,-2.1786 -2.1232,-2.1786 -1.1684,0 -2.1232,0.9825 -2.1232,2.1786 v 11.94131 z m 1.4167,-12.54711 h 1.4168 v 4.8232 h -1.4168 z"
     id="path168"
     inkscape:connector-curvature="0"
     style="clip-rule:evenodd;fill:#ffffff;fill-rule:evenodd" />
  <path
     d="m 63.17041,83.24481 h 4.2464 V 78.8956 h -1.4167 v 2.90121 h -1.4168 V 69.2453 h -1.4129 z"
     id="path170"
     inkscape:connector-curvature="0"
     style="clip-rule:evenodd;fill:#ffffff;fill-rule:evenodd" />
  <path
     d="M 19.73971,16.8967 C 19.73971,7.5649 27.28161,0 36.58561,0 c 9.3041,0 16.846,7.5649 16.846,16.8967 0,9.3319 -7.5419,16.8929 -16.846,16.8929 -9.304,0.004 -16.8459,-7.561 -16.8459,-16.8929 z m 6.8432,-9.3241 -1.8981,-1.8407 c -2.6627,2.8582 -4.3202,6.6795 -4.3861,10.8969 h 2.6316 c 0.0699,-3.499 1.444,-6.6756 3.6526,-9.0562 z m 2.2746,2.2058 -1.8748,-1.8213 c -2.1116,2.2835 -3.4235,5.3203 -3.4895,8.6717 h 2.6084 c 0.0621,-2.6446 1.0985,-5.0407 2.7559,-6.8504 z m 17.727,16.4463 1.8981,1.8408 c 2.6627,-2.8582 4.3201,-6.6795 4.3861,-10.8969 h -2.6317 c -0.0659,3.4951 -1.44,6.6717 -3.6525,9.0561 z M 36.30621,3.2038 V 0.5475 c -4.3823,0.0738 -8.3492,1.8874 -11.2371,4.7844 l 1.8981,1.8407 c 2.4065,-2.3921 5.6981,-3.895 9.339,-3.9688 z m 0,3.165 V 3.7475 c -3.4818,0.0738 -6.6375,1.5106 -8.9431,3.8096 l 1.8748,1.8213 c 1.8321,-1.8019 4.3201,-2.9397 7.0683,-3.0096 z m 0,3.7242 V 6.9086 c -2.589,0.0738 -4.9412,1.1456 -6.6724,2.8543 l 2.2746,2.2097 c 1.1567,-1.1068 2.6976,-1.8097 4.3978,-1.8796 z m 0,23.1568 v -2.6562 c -3.6409,-0.0738 -6.9325,-1.5767 -9.339,-3.9689 l -1.8981,1.8408 c 2.8879,2.897 6.8548,4.7105 11.2371,4.7843 z m 0.5589,-26.3412 v 3.1844 c 1.7001,0.0699 3.2411,0.7689 4.3978,1.8796 l 2.2785,-2.2097 c -1.739,-1.7087 -4.0912,-2.7805 -6.6763,-2.8543 z m -11.4855,17.821 c -0.2523,-0.1165 -0.5512,-0.2563 -0.7258,-0.3573 -0.2795,-0.1631 -0.0854,-0.3417 -0.3106,-0.5048 -0.2251,-0.1631 -0.3027,-0.1437 -0.524,-0.3068 -0.2251,-0.1631 0.1786,-0.1398 -0.2639,-0.3146 -0.1475,-0.0543 -0.1747,0.1709 -0.4542,0.1127 -0.2794,-0.0544 -0.2639,-0.5709 -0.4425,-0.5709 -0.5007,0 -0.5744,-0.6563 -0.6055,-1.0951 -0.0543,-0.769 0.5473,-0.6408 0.5473,-0.6408 l 0.4115,0.1709 0.2134,-0.3418 c 0,0 0.0777,0 0.2989,0.0311 -0.3648,-1.1883 -0.5706,-2.4466 -0.5939,-3.7475 h -2.6316 c 0.0698,4.2174 1.7234,8.0387 4.3861,10.8969 l 1.8981,-1.8408 c -0.4347,-0.4621 -0.8345,-0.9631 -1.2033,-1.4912 z m 1.9796,0.7417 c -0.0388,-0.0155 -0.0776,-0.0233 -0.1126,-0.031 -0.1552,-0.0311 -0.2794,0.1009 -0.4774,0.1747 0.066,0.0777 0.1359,0.1515 0.2057,0.2291 z m 3.6215,0.3301 -0.0117,0.0194 c -0.1669,0.2719 -0.2484,0.202 -0.8073,0.2602 -0.559,0.0544 -0.6793,0.334 -1.0713,0.3884 -0.3882,0.0543 -0.3338,0 -0.6715,-0.3262 -0.1514,-0.1437 -0.3455,-0.2913 -0.5396,-0.4156 l -0.5201,0.5049 c 2.3095,2.299 5.4613,3.7397 8.9431,3.8135 v -2.6213 c -1.9486,-0.0466 -3.7729,-0.6369 -5.3216,-1.6233 z m -6.5327,-4.7727 c 0.3921,-0.0544 0.5279,0.0311 0.8928,-0.0388 0.3649,-0.0661 0.1475,-0.9243 0.1475,-1.266 0,-0.3418 0.3532,-0.668 0.6016,-1.0097 0.0466,-0.066 0.0893,-0.1165 0.1359,-0.1631 -0.0699,-0.4505 -0.1126,-0.9126 -0.1242,-1.3786 h -2.6084 c 0.0271,1.3514 0.2562,2.6523 0.6598,3.8717 0.0738,0.004 0.1631,0.004 0.295,-0.0155 z m 17.5252,-8.9785 c 0.1242,0.1981 0.5823,0.9204 0.9238,1.1806 0.396,0.3068 0.9238,0.532 1.2072,0.7107 0.2834,0.1786 -0.3649,0.2174 -0.1203,0.4232 0.2445,0.2098 0.7608,-0.365 0.8927,-0.365 0.132,0 0.427,0.0699 0.427,0.4544 0,0.3844 -0.2135,0.6912 -0.0311,0.7223 0.1708,0.0272 0.7375,-0.734 0.7764,-1.3281 -0.101,-0.3185 -0.2174,-0.6253 -0.3455,-0.9282 -0.3726,-0.4 -0.9044,-0.4854 -0.916,-0.7145 -0.0195,-0.3884 0.1979,-0.3806 0.3376,-0.4156 -0.3454,-0.5825 -0.7491,-1.13 -1.2032,-1.631 z m -7.8446,2.0815 c 0.1475,0.004 0.3183,0 0.5706,-0.031 0.59,-0.066 0.4891,-1.0408 0.9044,-0.9165 0.2523,0.0738 0.4852,0.0466 0.6987,-0.004 v -2.5398 c -1.541,0.0699 -2.9461,0.7068 -4.0019,1.7204 z m -2.849,-0.4932 c 0.2251,-0.066 0.458,-0.1165 0.6792,-0.1398 0.9238,-0.0893 0.9238,0.6874 0.9238,0.6874 0,0 0.1747,-0.0544 0.4387,-0.0777 l -1.3974,-1.3553 c -0.2407,0.2757 -0.4541,0.5709 -0.6443,0.8854 z m -2.7753,2.9903 c 0.097,-0.1942 0.1746,-0.4272 0.1901,-0.7029 0.0311,-0.5398 0.1514,-1.3204 1.017,-1.3786 0.7763,-0.0544 -0.0699,-0.3457 0.3338,-0.4738 0.1204,-0.0388 0.2756,-0.0971 0.4542,-0.1631 0.2717,-0.5592 0.6171,-1.0757 1.0247,-1.534 l -2.2746,-2.2096 c -1.5526,1.7126 -2.5269,3.9688 -2.5929,6.4659 h 1.8477 z m -0.4581,1.5068 c 0.0311,0.1747 0.3571,0.233 0.1902,0.73 l -0.0077,0.0195 c 0,0 -0.3377,0.1747 -0.3377,-0.0311 v -0.0427 c -0.0117,-0.202 -0.1204,-0.466 -0.0893,-0.8272 0.0272,-0.3417 0.2212,-0.598 0.3726,-0.8155 h -1.5177 c 0.0117,0.4077 0.0466,0.8116 0.1048,1.2038 0.0194,0.004 0.0427,0.008 0.0621,0.0117 0.264,0.0582 0.6017,0.4971 0.8346,0.4971 0.1397,0 0.1824,-0.0427 0.2329,-0.0699 v 0.0427 c 0,0.2058 0.3377,0.0311 0.3377,0.0311 l 0.0077,-0.0195 c 0.1669,0.0971 0.3377,0.2796 0.4037,0.5126 0.0893,0.3263 0.392,1.2971 0.4813,1.4408 0.0893,0.1398 0.2057,0.5825 0.2057,0.9243 0,0.3417 0.2756,0.3805 0.3067,0.6407 0.031,0.2563 0.1164,0.7223 0.1164,0.7223 l -0.2523,0.2874 2.0262,-1.9689 c -0.8074,-0.9126 -1.378,-2.0466 -1.6031,-3.3048 -0.097,-0.0233 -0.1824,-0.0349 -0.2562,-0.0116 -0.3454,0.1204 0.1048,0.7922 -0.2406,0.7145 -0.2446,-0.0544 -0.427,-0.167 -0.3649,-0.3573 0.0621,-0.1864 0.2756,0.0311 0.2756,-0.4543 0,-0.2408 -0.4076,-0.4427 -0.031,-0.4427 0.0931,0 0.2833,0.2058 0.4347,0.2058 0.0466,0 0.0893,-0.004 0.1242,-0.0194 -0.0233,-0.1825 -0.0388,-0.3651 -0.0466,-0.5515 -0.0194,-0.0116 -0.0349,-0.0272 -0.0504,-0.0388 h -0.4619 c -0.0156,0.0854 -0.0932,0.1437 -0.2718,0.1514 -0.6132,0.0233 -0.4114,0.3534 -0.4425,0.5321 -0.0232,0.1825 -0.5744,0.1087 -0.5434,0.2874 z m 1.8088,-1.9651 c -0.2717,-0.1165 -0.7918,-0.1009 -0.7918,0.1709 0,0.0854 0.031,0.1864 0.0737,0.2874 h 0.6832 c 0.0078,-0.1554 0.0194,-0.3068 0.0349,-0.4583 z m 3.245,3.7281 c -0.687,0 -0.0078,-0.9708 -0.1863,-1.0135 -0.458,-0.1166 -0.2135,0.5126 -0.3959,0.5126 -0.1825,0 -0.4076,-0.2175 -0.4076,-0.334 0,-0.1165 0.0893,-0.4155 -0.1514,-0.4155 -0.2445,0 -0.5279,-0.1398 -0.7413,-0.2059 -0.1941,-0.0621 -0.4309,-0.0932 -0.6871,-0.1398 0.2329,1.0369 0.722,1.9767 1.3935,2.7417 z m 0.9587,-1.1495 c -0.0543,-0.0427 -0.1164,-0.0738 -0.194,-0.0738 -0.2446,0 -0.4464,0.7767 -0.6327,1.0913 l 0.9199,-0.8932 c -0.031,-0.0388 -0.0621,-0.0815 -0.0932,-0.1243 z m -0.9859,-1.5805 c -0.031,0.1048 -0.0737,0.2136 -0.163,0.3029 -0.1397,0.1437 0.2834,0.1864 0.59,0.1281 l 0.0388,-0.008 c -0.031,-0.1359 -0.0543,-0.2796 -0.066,-0.4233 z m 3.2334,-3.4835 c -0.1514,-0.0582 -0.2989,-0.0543 -0.2562,0.1127 0.0815,-0.0156 0.1669,-0.0272 0.2562,-0.035 z m 0.8617,5.8019 c 0.1164,-0.1437 0.229,-0.2602 0.2445,-0.4272 0.0582,-0.6524 0.7297,-0.1747 0.9859,-0.4155 0.2523,-0.2369 0.4464,-0.8854 0.2252,-1.0447 -0.2252,-0.1553 0.5783,-0.0388 0.5162,-0.3068 -0.0621,-0.2679 -0.6793,0.0583 -0.7414,-0.1786 -0.0621,-0.2369 -0.4891,-0.2679 -0.2135,-1.5262 0.066,-0.2912 -0.5473,-0.0582 -0.6482,-0.8388 -0.0194,-0.1592 -0.621,-0.0621 -0.7918,-0.2058 -0.1514,-0.1282 -0.2251,-0.2214 -0.2484,-0.2952 -0.101,0.004 -0.2019,0.0117 -0.3028,0.0272 0.0505,0.2525 0.0505,0.4971 -0.1009,0.5942 -0.2446,0.1553 -0.4658,0.1281 -0.6521,0.2485 -0.1825,0.1165 0.0621,0.2641 -0.1514,0.4117 -0.2135,0.1475 -0.6172,0.2446 -0.59,0.4543 0.0311,0.2059 0.3571,0.2952 0.2523,0.4117 -0.1009,0.1204 -0.3455,-0.1787 -0.4347,0.031 -0.0893,0.2059 0,0.7767 -0.2446,0.7767 -0.2251,0 0.0039,-0.3883 -0.3144,-0.5087 -0.0039,0.066 -0.0077,0.132 -0.0077,0.2019 0,0.1748 0.0155,0.3495 0.0504,0.5127 0.035,-0.004 0.0738,-0.004 0.1165,0 0.2756,0.031 -0.0621,0.1592 0.2756,0.1592 0.3338,0 0.2367,-0.602 0.458,-0.5709 0.2212,0.0311 0.1242,0.9281 -0.1514,1.134 -0.2756,0.2058 -0.2445,-0.1787 -0.3338,0.031 -0.0117,0.035 -0.0233,0.0699 -0.0311,0.1049 0.0854,0.1437 0.1864,0.2796 0.2989,0.4077 0.3183,0 0.2601,-0.4815 0.4697,-0.5436 0.2135,-0.0583 -0.0388,-0.6602 0.4891,-0.7185 0.5279,-0.0582 0.7918,-0.198 0.9548,0.1593 0.163,0.3533 -0.3648,1.3708 -0.6094,1.4019 -0.5512,0.066 -0.8617,-0.0583 -0.8617,0.0582 0,0.0117 -0.0039,0.0233 -0.0077,0.035 0.4308,0.3068 0.9587,0.4893 1.5254,0.4893 0.198,-0.004 0.3882,-0.0272 0.5745,-0.0699 z m -0.3028,1.5805 c 0.2057,-0.1437 0.3183,-0.2835 0.3959,-0.4466 0.3028,-0.6601 -0.4269,-0.008 -0.3648,-0.5398 l 0.0077,-0.0466 -0.0349,0.004 v 1.0291 z m -0.5589,1.868 c -0.1087,0.0194 -0.2096,0.0116 -0.2756,-0.0389 -0.2057,-0.1514 -0.2407,-0.8737 0.2756,-0.9514 v -1.9107 c -0.6715,-0.0582 -1.2848,-0.3339 -1.77,-0.765 l -2.2319,2.167 c 1.0558,1.0135 2.4609,1.6504 4.0019,1.7203 z m 0.5589,-0.0583 c 0.1087,-0.066 0.264,-0.1204 0.5163,-0.1359 0.6637,-0.0427 0.5861,0.132 0.7801,0.2213 0.7492,-0.198 1.444,-0.5359 2.0573,-0.9825 -0.1281,-0.198 -0.3338,0.2253 -0.6172,0.167 -0.2834,-0.0582 -0.3338,-0.3922 0,-0.6602 0.3338,-0.264 0.6094,-0.3922 0.458,-0.5708 -0.1514,-0.1787 -0.6171,0.0388 -0.7724,0.3068 -0.1514,0.264 -0.0893,1.1339 -0.3338,1.165 -0.2446,0.0311 -0.4891,0.004 -0.8928,-0.1165 -0.9859,-0.2951 -0.9238,0.3146 -1.1062,0.4116 l -0.0893,0.0466 z m -0.5589,3.5417 c -0.229,0.0194 -0.4154,0 -0.8035,-0.1126 -0.6211,-0.1787 -1.2305,-1.1418 -1.2305,-1.3515 0,-0.2058 0.2446,-0.2951 0.3067,-0.4427 0.0621,-0.1475 0.0931,-0.365 0.1514,-0.5436 0.0349,-0.1088 0.1979,-0.2797 0.3726,-0.4272 -1.2188,-0.2757 -2.3173,-0.8816 -3.1945,-1.7243 l -2.0223,1.965 c 0.3493,0.1515 0.1009,0.3068 0.3648,0.6136 0.2795,0.3262 0.5823,0.3107 0.8074,0.5243 0.0932,0.0893 0.1203,0.2136 0.1126,0.3456 1.4866,0.9748 3.2488,1.5573 5.1353,1.6116 z m 1.9951,0.3223 c -0.0699,-0.1631 -0.1203,-0.3301 -0.2096,-0.431 -0.1747,-0.202 -0.6715,-0.0156 -1.2266,0.0543 v 0.5204 c 0.4891,-0.0116 0.9665,-0.0621 1.4362,-0.1437 z m 3.1207,3.3359 c -0.1707,0 -0.3571,-0.0738 -0.5434,-0.1709 -0.2096,-0.1126 -0.4153,-0.2563 -0.59,-0.3689 -0.3532,-0.233 -0.8384,-0.6874 -1.1179,-1.0757 -0.2755,-0.3806 0.2795,-0.8117 -0.4502,-1.2427 -0.6017,0.1242 -1.2188,0.198 -1.8515,0.2136 v 2.6213 c 1.18,-0.0233 2.3212,-0.2097 3.4041,-0.5243 0.1941,0.1243 0.3959,0.268 0.6055,0.3806 -1.2654,0.4194 -2.6123,0.6602 -4.0096,0.6874 v 2.6562 c 4.3823,-0.0738 8.3453,-1.8873 11.2371,-4.7844 l -1.8981,-1.8407 c -0.8656,0.8621 -1.8437,1.6077 -2.915,2.2135 -0.6677,0.5593 -1.6187,1.235 -1.871,1.235 z m 1.017,-7.1145 c -1.0053,0.1204 -1.5875,-0.6291 -1.7583,-0.5203 -0.1825,0.1165 -0.1825,0.2058 -0.1825,0.3068 0,0.1009 1.5643,0.4737 1.9719,0.5048 0.0776,0.004 0.1475,-0.0155 0.2096,-0.0544 z m 2.0339,-5.794 c 0.0233,0.066 0.0466,0.132 0.0583,0.2175 0.031,0.264 0.9859,1.1417 0.9859,1.4679 0,0.3262 -0.5318,0.2757 -0.8928,0.3262 -0.7297,0.0971 -0.7297,0.3223 -0.9548,0.3068 -0.2058,-0.0156 -0.0932,-0.3029 -0.1514,-0.2486 -0.1242,0.1204 -0.4697,0.7845 -0.6211,1.0253 -0.163,0.264 -0.5628,0.4776 -0.8539,0.664 -0.097,0.1321 -0.198,0.2602 -0.3028,0.3845 0.101,0.1942 0.6172,-0.1553 0.8229,-0.2136 0.2135,-0.0582 0.2135,-0.4815 0.4658,-0.5126 0.2523,-0.0311 0.2756,0.1165 0.427,0.4815 0.1514,0.3651 -0.1514,0.1476 -0.2446,1.1068 -0.0155,0.1748 -0.0155,0.4078 -0.1979,0.5748 l 0.0466,0.0427 c 0.1242,-0.1437 0.2639,-0.2719 0.458,-0.2952 0.4852,-0.0582 0.2717,0.2369 0.3454,0.602 0.035,0.1864 0.132,0.2679 0.2174,0.3534 1.4634,-1.6893 2.3716,-3.8757 2.4337,-6.2873 h -2.0417 z m 1.9719,-1.468 c -0.0777,0.0583 -0.1708,0.0894 -0.2795,0.035 -0.2329,-0.1087 0.0621,-0.501 0.1553,-0.8233 -0.0311,-0.1592 -0.066,-0.3107 -0.1048,-0.4621 -0.0816,0.2213 -0.3998,0.9941 -0.6715,1.0485 -0.2834,0.0583 -0.3067,0 -0.5784,0.268 -0.2601,0.2524 -0.229,0.5436 -0.4076,0.8582 h 1.9525 c -0.0078,-0.3107 -0.0272,-0.6213 -0.066,-0.9243 z m -5.6477,-3.4096 c -0.0194,0.004 -0.0349,0.004 -0.0543,0.004 -0.2446,0 -0.3649,0.2485 -0.5279,0 -0.0738,-0.1126 0.0737,-0.2136 0.2639,-0.2796 -1.0014,-0.8117 -2.2551,-1.3165 -3.6137,-1.3786 v 2.4077 c 0.1397,-0.0156 0.2717,0.004 0.3959,0.0893 0.8035,0.5709 0.7453,-0.6912 1.1218,-0.4155 0.5085,0.3728 -0.8074,0.7805 -0.5357,1.0485 0.2756,0.268 0.295,-0.2369 0.5784,-0.1786 0.2833,0.0582 0.1824,0.3534 0.621,0.3534 0.4348,0 0.2446,-0.8699 1.0752,-0.9864 0.0621,-0.008 0.1126,-0.0195 0.1592,-0.0311 l 0.2367,-0.233 c -0.0116,-0.1165 -0.0659,-0.2408 0.3028,-0.2951 l 0.0427,-0.0428 z m 7.8019,-0.6446 c -0.1319,0.0699 -0.2872,0.1126 -0.4619,0.0893 -0.4386,-0.0583 -0.4929,-0.9515 -0.9859,-1.134 -1.7544,-0.6602 -1.2887,-0.9359 -1.4711,-1.1417 -0.1553,-0.1787 -0.5434,-0.1088 -0.7258,-0.2952 l -0.3727,0.3612 c 0.0621,0.066 0.1281,0.1243 0.2096,0.1709 0.6094,0.365 0.2446,0.7572 0.4891,0.9359 0.2445,0.1786 0.163,-0.1165 0.3765,0.0893 0.2135,0.2097 -0.0621,0.4233 0.1824,0.7184 0.2446,0.2952 0.427,0.466 0.4891,0.7418 0.0311,0.132 0.035,0.5203 0.0466,0.9009 0.097,0.2486 0.1863,0.5087 0.264,0.7651 0.0892,-0.1515 0.2018,-0.3767 0.3687,-0.3767 0.163,0 0.0078,0.6873 -0.1475,1.2543 0.1281,0.6175 0.2018,1.2505 0.2212,1.9029 h 2.6084 c -0.0465,-1.7709 -0.4269,-3.4524 -1.0907,-4.9824 z m -1.7544,-4.3223 c 0.2057,0.2136 0.524,0.4466 0.6249,0.5747 0.163,0.2059 0.4852,0.6913 0.6987,1.1146 0.2096,0.4155 1.2964,1.8679 0.8811,2.2796 0.7297,1.6349 1.1528,3.4368 1.1877,5.3358 h 2.6317 c -0.0698,-4.2174 -1.7234,-8.0387 -4.3861,-10.8969 z m -4.2697,-2.7378 c 0.1979,-0.0854 0.5783,0.0932 0.7879,-0.2757 0.163,-0.2835 0.8617,0.2174 0.9859,0.0582 0.1204,-0.1592 -0.5123,-0.8194 0.4658,-0.3844 0.6715,0.2951 0,0.4737 0.0311,0.7184 0.031,0.2485 0.2135,-0.1165 0.9238,0.7495 0.3532,0.431 -0.163,0.2679 0.2135,0.6796 0.3765,0.4155 0.458,0.2175 0.7103,0.3068 0.0931,0.031 0.1242,0.0815 0.1281,0.1398 l 1.2809,-1.2466 c -2.8879,-2.897 -6.8548,-4.7106 -11.2371,-4.7844 v 2.6563 c 2.0456,0.0427 3.9786,0.532 5.7098,1.3825 z m -5.6516,-0.1786 c 0.1087,-0.0544 0.427,0.0932 0.427,0.2485 0,0.1553 -0.2678,0.233 -0.427,0.1825 -0.0233,-0.008 -0.0427,-0.0233 -0.0582,-0.0427 v 1.5728 c 2.3755,0.0621 4.5608,0.9203 6.2959,2.3184 -0.2484,-0.2835 -0.4658,-0.5126 -0.5396,-0.5437 -0.2134,-0.0893 -0.3648,-0.334 -0.1513,-0.4815 0.2134,-0.1476 -0.0932,-0.4738 0.031,-0.6913 0.3649,0 0.2523,0.532 0.4969,0.8078 0.2445,0.2757 0.3338,-0.0699 0.5473,0.1747 0.2134,0.2486 0.0388,0.8777 0.4386,1.0563 0.0776,0.035 0.1436,0.0777 0.2057,0.1204 l 0.5667,-0.5476 c -0.0932,-0.3844 -0.229,-0.8388 -0.4968,-0.9825 -0.396,-0.2058 -0.3416,0.3961 -0.59,0.2369 -0.4581,-0.2951 -0.3649,-1.2543 -0.3649,-1.2543 0,0 -0.6754,-0.1127 -0.4076,-1.0447 0.0505,-0.1786 -0.4192,-0.1747 -0.5123,-0.4427 -1.673,-0.831 -3.5439,-1.3126 -5.5196,-1.3514 v 0.7262 c 0.0155,-0.0272 0.0349,-0.0505 0.0582,-0.0621 z m 8.7219,21.6694 c -0.2096,0.0738 -0.4231,0.0544 -0.4658,-0.1475 -0.0194,-0.0855 -0.0388,-0.2097 -0.0582,-0.3573 l -1.1878,-1.1534 c -0.0815,0.0816 -0.1669,0.1631 -0.2523,0.2408 -0.0155,0.0466 -0.0194,0.101 -0.0116,0.1515 0.0621,0.365 0.8034,0.7495 0.8345,0.9863 0.0311,0.2369 -0.3959,0.8117 -0.3959,1.0447 0,0.1553 0.0388,0.4932 -0.0117,0.8349 0.6133,-0.431 1.1878,-0.9126 1.7157,-1.4407 z m -0.1592,-2.0193 c 0.5861,-0.0544 0.6405,1.3009 0.5861,1.6271 -0.0038,0.0117 -0.0038,0.0233 -0.0077,0.035 l 0.1242,0.1242 c 2.1116,-2.2834 3.4235,-5.3202 3.4895,-8.6716 h -2.6084 c -0.066,2.6407 -1.0985,5.0406 -2.7559,6.8503 l 0.7724,0.7495 c 0.0272,-0.3728 0.1281,-0.6873 0.3998,-0.7145 z M 21.89791,22.252 c 0.2134,-0.0544 0.163,0.4194 0.3803,0.6835 0.2213,0.2602 0.2756,0.7029 0.2058,0.7805 -0.1281,0.1476 -0.1863,-0.2873 -0.3649,-0.7223 -0.1747,-0.4388 -0.2329,-0.633 -0.2212,-0.7417 z m 23.7783,-4.1164 c 0.5202,-0.0583 0.4348,0.3067 0.0932,0.3067 -0.3455,-0.004 -0.6094,-0.2485 -0.0932,-0.3067 z m -1.8165,3.6154 c 0.2134,-0.1476 0.4075,0.0389 0.1824,0.1592 -0.2213,0.1204 -0.3959,-0.0116 -0.1824,-0.1592 z m -14.6141,-2.6291 c 0.2135,-0.1475 0.6094,0.369 0.295,0.5165 -0.3144,0.1476 -0.5085,-0.3689 -0.295,-0.5165 z m 6.5987,0.1709 c 0,-0.0738 0.0892,-0.1359 0.1979,-0.1359 0.1087,0 0.1669,0.0233 0.1669,0.101 0,0.0776 -0.0582,0.1786 -0.1669,0.1786 -0.1087,-0.004 -0.1979,-0.066 -0.1979,-0.1437 z m 1.1411,-1.2776 c 0,-0.0661 0.1165,-0.0894 0.1825,-0.0894 0.066,0 0.1203,0.0544 0.1203,0.1165 0,0.0661 -0.0543,0.1204 -0.1203,0.1204 -0.0699,0 -0.1825,-0.0815 -0.1825,-0.1475 z m -1.1683,-1.1651 c 0.3066,0.268 0.2135,0.4427 -0.163,0.3845 -0.3765,-0.0583 0.0116,-0.5126 0.163,-0.3845 z m 2.4376,0.9126 c 0.0699,0 0.0543,0.2563 -0.0116,0.2563 -0.0699,0 -0.0544,-0.2563 0.0116,-0.2563 z m 1.7778,-5.4678 c 0.2134,0.0893 0.1203,0.5437 -0.1825,0.4854 -0.3066,-0.0621 -0.031,-0.5709 0.1825,-0.4854 z m -0.4891,0.5708 c 0.1514,0.1204 -0.132,0.633 -0.3144,0.5437 -0.1825,-0.0893 0.163,-0.6602 0.3144,-0.5437 z m 7.0605,-0.7456 c 0.2135,-0.0582 0.4852,1.0253 0.2717,1.1146 -0.2911,0.1204 -0.4852,-1.0563 -0.2717,-1.1146 z m -0.8811,-2.0077 c 0.0621,0 0.2562,0.3107 0.1941,0.3107 -0.295,0.004 -0.3804,-0.3107 -0.1941,-0.3107 z m -4.7898,-3.033 c 0,0 0.5473,0.2136 0.8617,0.1243 0.3144,-0.0893 0.3959,-0.2019 0.3959,-0.2019 0,0 0.0932,0.4233 -0.2251,0.4815 -0.3106,0.0583 -1.0325,-0.4039 -1.0325,-0.4039 z m -1.083,-2.6523 c 0.1863,0 0.3183,0.3339 0.0272,0.3339 -0.2911,0.004 -0.2135,-0.3339 -0.0272,-0.3339 z m 1.3392,2.2485 c 0.0659,0 0.2561,0.3106 0.1902,0.3106 -0.2912,0 -0.3766,-0.3106 -0.1902,-0.3106 z m -1.4517,-5.0252 c 0.0815,0.1049 -0.0544,0.2563 -0.4425,0.299 -0.3882,0.0428 -0.6405,0.2835 -0.8423,0.0777 -0.2019,-0.2058 0.4696,-0.1942 0.6559,-0.3767 0.1902,-0.1825 0.3377,-0.2602 0.6289,0 z m -1.7079,0.1592 c 0.1591,0 0.3454,0.7923 0.2639,0.9088 -0.0815,0.1203 -0.2639,0.0271 -0.5861,-0.0272 -0.3183,-0.0505 -0.1747,-0.299 -0.4425,-0.299 -0.2639,0 -0.4231,0.1825 -0.3998,-0.0233 0.0311,-0.2098 1.0053,-0.5593 1.1645,-0.5593 z"
     id="path172"
     inkscape:connector-curvature="0"
     style="fill:#00528a" />
  <path
     d="m 36.54301,37.7546 c 0,0 -2.1892,-0.8 -4.3396,-0.8427 -2.1504,-0.0427 -5.7292,1.0874 -6.948,1.266 -1.475,0.2136 -3.7923,-0.2951 -3.7923,-0.2951 0,0 1.2654,1.9378 5.7292,1.9805 3.54,0.035 6.1523,-1.9378 8.423,-1.8951 -3.7457,1.4718 -5.0538,3.7087 -5.0538,3.7087 l 1.0519,0.2524 c 0,0 2.9461,-3.4563 4.9684,-3.6232 2.0223,0.1708 4.9684,3.6232 4.9684,3.6232 l 1.0558,-0.2524 c 0,0 -1.3081,-2.2369 -5.0538,-3.7087 2.2707,-0.0427 4.883,1.9301 8.4229,1.8951 4.4638,-0.0427 5.7331,-1.9805 5.7331,-1.9805 0,0 -2.3212,0.5087 -3.7923,0.2951 -1.2227,-0.1748 -4.7976,-1.3087 -6.948,-1.266 -2.1542,0.0427 -4.4249,0.8427 -4.4249,0.8427 z m 13.6087,-8.5513 c 0,0 -0.4736,2.897 -0.9704,3.8368 -1.2227,2.3146 -2.6511,3.033 -2.6511,3.033 0,0 2.6395,-1.1184 3.7457,-1.3903 3.2877,-0.8 5.1004,-1.9805 5.1004,-1.9805 -0.2523,0.633 -2.1854,3.0873 -4.8869,4.3844 -2.0223,0.9708 -4.6346,-0.4583 -6.2765,-0.4583 0.5085,-0.466 0.885,-0.4233 2.4454,-3.2077 1.6108,-2.8815 3.4934,-4.2174 3.4934,-4.2174 z m 8.0387,-3.2854 c 0,0 -0.982,4.4388 -3.0315,5.899 -2.4842,1.7708 -5.5623,2.4426 -5.5623,2.4426 0.6288,-2.0621 0.7569,-4.295 1.1373,-5.1805 0.7336,-1.7048 2.3134,-4.5086 2.3134,-4.5086 0,0 0.4231,2.9941 -0.3765,5.0174 -0.5473,1.3902 -1.2654,2.7378 -1.2654,2.7378 0,0 2.6938,-2.2369 3.4973,-2.866 1.9874,-1.5611 3.2877,-3.5417 3.2877,-3.5417 z m 1.5216,-6.3261 c 0,0 -0.4115,3.8563 -2.0223,5.899 -1.4284,1.8135 -2.6511,2.1514 -4.0407,3.7513 -0.0427,0 0.2484,-1.5572 0.2057,-2.5281 -0.0427,-0.9708 -0.295,-2.7378 -0.163,-4.0853 0.2484,-2.5747 0.9277,-4.1359 0.9277,-4.1359 0,0 0.59,3.2 0.59,4.5514 0,1.3514 -0.4658,3.7514 -0.4658,3.7514 0,0 1.4788,-2.6563 2.2784,-3.499 0.7919,-0.8388 2.69,-3.7048 2.69,-3.7048 z m 0.0854,-7.3319 c 0.163,0.8427 0.6288,3.0757 -0.0854,5.3941 -0.7142,2.3184 -1.8127,2.699 -3.4973,5.864 0.0854,-1.1806 0.1125,-1.6815 -0.4231,-2.8699 -1.5992,-3.5378 -1.2615,-6.5319 -1.2615,-6.5319 0,0 1.5526,2.4233 1.8127,3.2854 0.6288,2.1087 0.4619,3.7087 0.4619,3.7087 0,0 0.9277,-3.2466 1.2654,-4.3844 0.3377,-1.134 1.2188,-2.3573 1.7273,-4.466 z m -2.9539,-5.9843 c 0,0 0.2756,2.8776 0.1708,3.8795 -0.2562,2.4 -0.1281,4.7184 -0.1281,4.7184 0,0 -0.8384,-2.2718 -1.5138,-3.1572 -0.6754,-0.8855 -2.4881,-2.3612 -2.4881,-2.3612 0,0 0.3804,2.3223 1.9408,4.2563 2.0611,2.5591 2.2785,4.7572 2.2785,4.7572 0,0 1.3895,-3.0718 1.5138,-6.5281 0.1358,-3.7514 -1.7739,-5.5649 -1.7739,-5.5649 z m -3.1557,-3.3281 c 0.9626,2.3572 1.048,4.6368 1.5138,6.5707 -0.6288,-0.9708 -1.1257,-2.0038 -1.9408,-2.5281 -1.6419,-1.0563 -2.6123,-2.3572 -2.6123,-2.3572 -0.1281,0.2097 -0.0427,2.5281 2.4842,4.2562 1.8244,1.2466 2.9927,3.1184 2.9927,3.1184 0,-3.2465 0.5046,-2.5747 0.3338,-4.3883 -0.3299,-3.5766 -2.7714,-4.6717 -2.7714,-4.6717 z m -30.6682,26.2558 c 0,0 0.4697,2.897 0.9704,3.8368 1.2227,2.3146 2.655,3.033 2.655,3.033 0,0 -2.6394,-1.1184 -3.7457,-1.3903 -3.2877,-0.8 -5.1003,-1.9805 -5.1003,-1.9805 0.2523,0.633 2.1853,3.0873 4.8868,4.3844 2.0223,0.9708 4.6346,-0.4583 6.2765,-0.4583 -0.5085,-0.466 -0.885,-0.4233 -2.4454,-3.2077 -1.6147,-2.8815 -3.4973,-4.2174 -3.4973,-4.2174 z m -8.0387,-3.2854 c 0,0 0.9821,4.4388 3.0277,5.899 2.4842,1.7708 5.5622,2.4426 5.5622,2.4426 -0.6288,-2.0621 -0.7569,-4.295 -1.1373,-5.1805 -0.7336,-1.7048 -2.3134,-4.5086 -2.3134,-4.5086 0,0 -0.4231,2.9941 0.3765,5.0174 0.5473,1.3902 1.2654,2.7378 1.2654,2.7378 0,0 -2.6938,-2.2369 -3.4973,-2.866 -1.9834,-1.5611 -3.2838,-3.5417 -3.2838,-3.5417 z m -1.5215,-6.3261 c 0,0 0.4114,3.8563 2.0223,5.899 1.4284,1.8135 2.6549,2.1514 4.0407,3.7513 0.0427,0 -0.2485,-1.5572 -0.2058,-2.5281 0.0427,-0.9708 0.295,-2.7378 0.1631,-4.0853 -0.2485,-2.5747 -0.9277,-4.1359 -0.9277,-4.1359 0,0 -0.5861,3.2 -0.5861,4.5514 0,1.3514 0.4657,3.7514 0.4657,3.7514 0,0 -1.4749,-2.6563 -2.2784,-3.499 -0.7996,-0.8388 -2.6938,-3.7048 -2.6938,-3.7048 z m -0.0854,-7.3319 c -0.163,0.8427 -0.6288,3.0757 0.0854,5.3941 0.7142,2.3184 1.8127,2.699 3.4973,5.864 -0.0854,-1.1806 -0.1126,-1.6815 0.423,-2.8699 1.5992,-3.5378 1.2615,-6.5319 1.2615,-6.5319 0,0 -1.5526,2.4233 -1.8126,3.2854 -0.6288,2.1087 -0.4619,3.7087 -0.4619,3.7087 0,0 -0.9239,-3.2466 -1.2654,-4.3844 -0.3377,-1.134 -1.2188,-2.3573 -1.7273,-4.466 z m 2.95,-5.9843 c 0,0 -0.2756,2.8776 -0.1708,3.8795 0.2562,2.4 0.1281,4.7184 0.1281,4.7184 0,0 0.8384,-2.2718 1.5138,-3.1572 0.6754,-0.8855 2.488,-2.3612 2.488,-2.3612 0,0 -0.3842,2.3223 -1.9407,4.2563 -2.0611,2.5591 -2.2746,4.7572 -2.2746,4.7572 0,0 -1.3896,-3.0718 -1.5177,-6.5281 -0.132,-3.7514 1.7739,-5.5649 1.7739,-5.5649 z m 3.1595,-3.3281 c -0.9626,2.3572 -1.048,4.6368 -1.5138,6.5707 0.6289,-0.9708 1.1218,-2.0038 1.9369,-2.5281 1.6419,-1.0563 2.6123,-2.3572 2.6123,-2.3572 0.1281,0.2097 0.0427,2.5281 -2.4842,4.2562 -1.8243,1.2466 -2.9927,3.1184 -2.9927,3.1184 0,-3.2465 -0.5046,-2.5747 -0.3338,-4.3883 0.3339,-3.5766 2.7753,-4.6717 2.7753,-4.6717 z M 49.34041,1.565 c 1.739,3.6698 4.8636,5.5572 4.8636,5.5572 -0.6482,-4.8077 -4.8636,-5.5572 -4.8636,-5.5572 z m -25.6454,0 c -1.7389,3.6698 -4.8636,5.5572 -4.8636,5.5572 0.6521,-4.8077 4.8636,-5.5572 4.8636,-5.5572 z"
     id="path174"
     inkscape:connector-curvature="0"
     style="clip-rule:evenodd;fill:#00528a;fill-rule:evenodd" />
</svg>
